<?xml version="1.0" encoding="UTF-8"?>
<svg width="18px" height="18px" viewBox="0 0 18 18" version="1.1" xmlns="http://www.w3.org/2000/svg" xmlns:xlink="http://www.w3.org/1999/xlink">
    <title>20@3x</title>
    <g id="Desctop" stroke="none" stroke-width="1" fill="none" fill-rule="evenodd">
        <g id="icons2" transform="translate(-175.000000, -557.000000)" fill="#66ACAC" fill-rule="nonzero">
            <path d="M184,560 C184.414214,560 184.75,560.335786 184.75,560.75 L184.75,560.75 L184.75,565.25 L189.25,565.25 C189.629696,565.25 189.943491,565.532154 189.993153,565.898229 L190,566 C190,566.414214 189.664214,566.75 189.25,566.75 L189.25,566.75 L184.75,566.75 L184.75,571.25 C184.75,571.629696 184.467846,571.943491 184.101771,571.993153 L184,572 C183.585786,572 183.25,571.664214 183.25,571.25 L183.25,571.25 L183.25,566.75 L178.75,566.75 C178.370304,566.75 178.056509,566.467846 178.006847,566.101771 L178,566 C178,565.585786 178.335786,565.25 178.75,565.25 L178.75,565.25 L183.25,565.25 L183.25,560.75 C183.25,560.370304 183.532154,560.056509 183.898229,560.006847 Z" id="Combined-Shape"></path>
        </g>
    </g>
</svg>