<svg width="77" height="50" viewBox="0 0 77 50" fill="none" xmlns="http://www.w3.org/2000/svg">
<rect x="14" width="50" height="50" rx="4" fill="#E4E6EA"/>
<path fill-rule="evenodd" clip-rule="evenodd" d="M30.5858 18L27.2929 14.7071C26.9024 14.3166 26.9024 13.6834 27.2929 13.2929C27.6834 12.9024 28.3166 12.9024 28.7071 13.2929L37.413 21.9988C37.422 22.0075 37.4309 22.0164 37.4397 22.0254L42.9746 27.5604C42.9837 27.5691 42.9925 27.578 43.0012 27.587L50.7071 35.2929C51.0976 35.6834 51.0976 36.3166 50.7071 36.7071C50.3166 37.0976 49.6834 37.0976 49.2929 36.7071L47.5858 35H30C28.3431 35 27 33.6569 27 32V21C27 19.3431 28.3431 18 30 18H30.5858ZM40.9061 28.3204L36.6796 24.0939C36.1024 24.7825 35.8544 25.7084 36.0387 26.6172C36.2782 27.7986 37.2014 28.7218 38.3828 28.9613C39.2916 29.1456 40.2175 28.8976 40.9061 28.3204ZM35.2621 22.6763C34.2182 23.8362 33.7594 25.4407 34.0785 27.0146C34.4777 28.9835 36.0165 30.5223 37.9854 30.9215C39.5593 31.2406 41.1638 30.7818 42.3237 29.7379L45.5858 33H30C29.4477 33 29 32.5523 29 32V21C29 20.4477 29.4477 20 30 20H32.5858L35.2621 22.6763ZM43.1679 19.5547C43.3534 19.8329 43.6656 20 44 20H48C48.5523 20 49 20.4477 49 21V30.34C49 30.8923 49.4477 31.34 50 31.34C50.5523 31.34 51 30.8923 51 30.34V21C51 19.3431 49.6569 18 48 18H44.5352L42.8321 15.4453C42.6466 15.1671 42.3344 15 42 15H36C35.4477 15 35 15.4477 35 16C35 16.5523 35.4477 17 36 17H41.4648L43.1679 19.5547Z" fill="#D2D4D6"/>
</svg>
