<?xml version="1.0" encoding="UTF-8"?>
<svg width="16px" height="16px" viewBox="0 0 16 16" version="1.1" xmlns="http://www.w3.org/2000/svg" xmlns:xlink="http://www.w3.org/1999/xlink">
    <!-- Generator: sketchtool 63.1 (101010) - https://sketch.com -->
    <title>F29EA498-2A7C-425D-9FA2-F38F1C24CC86</title>
    <desc>Created with sketchtool.</desc>
    <g id="Grids" stroke="none" stroke-width="1" fill="none" fill-rule="evenodd">
        <g id="icons" transform="translate(-64.000000, -372.000000)" fill="#D6DCE3" fill-rule="nonzero">
            <g id="comment" transform="translate(64.000000, 372.000000)">
                <path d="M11.7037333,4.29630222 L4.29631111,4.29630222 C4.09985778,4.29630222 3.91144889,4.37434667 3.77253333,4.51326222 C3.63361778,4.65217778 3.55557333,4.84058667 3.55557333,5.03704 C3.55557333,5.23350222 3.63361778,5.42191111 3.77253333,5.56082667 C3.91144889,5.69974222 4.09985778,5.77777778 4.29631111,5.77777778 L11.7037333,5.77777778 C11.9001778,5.77777778 12.0886222,5.69974222 12.2274667,5.56082667 C12.3664,5.42191111 12.4444444,5.23350222 12.4444444,5.03704 C12.4444444,4.84058667 12.3664,4.65217778 12.2274667,4.51326222 C12.0886222,4.37434667 11.9001778,4.29630222 11.7037333,4.29630222 Z M11.7037333,7.25926222 L4.29631111,7.25926222 C4.09985778,7.25926222 3.91144889,7.33730667 3.77253333,7.47622222 C3.63361778,7.61513778 3.55557333,7.80354667 3.55557333,8 C3.55557333,8.19644444 3.63361778,8.38488889 3.77253333,8.52382222 C3.91144889,8.66266667 4.09985778,8.74071111 4.29631111,8.74071111 L11.7037333,8.74071111 C11.9001778,8.74071111 12.0886222,8.66266667 12.2274667,8.52382222 C12.3664,8.38488889 12.4444444,8.19644444 12.4444444,8 C12.4444444,7.80354667 12.3664,7.61513778 12.2274667,7.47622222 C12.0886222,7.33730667 11.9001778,7.25926222 11.7037333,7.25926222 Z M13.1852444,0.592595556 L2.81483556,0.592595556 C2.22546667,0.592595556 1.66023111,0.82672 1.24348444,1.24346667 C0.826737778,1.66022222 0.592613333,2.22544889 0.592613333,2.81481778 L0.592613333,10.2222222 C0.592613333,10.8115556 0.826737778,11.3768 1.24348444,11.7936 C1.66023111,12.2103111 2.22546667,12.4444444 2.81483556,12.4444444 L11.4,12.4444444 L14.1408,15.1926222 C14.2099556,15.2612444 14.2920889,15.3155556 14.3823111,15.3524444 C14.4725333,15.3893333 14.5691556,15.408 14.6666667,15.4073778 C14.7638222,15.4099556 14.8602667,15.3896 14.9481778,15.3481778 C15.0834667,15.2926222 15.1992,15.1982222 15.2809778,15.0769778 C15.3626667,14.9556444 15.4066667,14.8128889 15.4074667,14.6666667 L15.4074667,2.81481778 C15.4074667,2.22544889 15.1733333,1.66022222 14.7565333,1.24346667 C14.3398222,0.82672 13.7745778,0.592595556 13.1852444,0.592595556 Z M13.9259556,12.8815111 L12.2296889,11.1777778 C12.1604444,11.1091556 12.0783111,11.0548444 11.9880889,11.0179556 C11.8978667,10.9810667 11.8012444,10.9624 11.7037333,10.9629333 L2.81483556,10.9629333 C2.61837333,10.9629333 2.42996444,10.8848889 2.29104889,10.7460444 C2.15213333,10.6071111 2.07408889,10.4186667 2.07408889,10.2222222 L2.07408889,2.81481778 C2.07408889,2.61836444 2.15213333,2.42995556 2.29104889,2.29104 C2.42996444,2.15212444 2.61837333,2.07408 2.81483556,2.07408 L13.1852444,2.07408 C13.3816889,2.07408 13.5700444,2.15212444 13.7089778,2.29104 C13.8479111,2.42995556 13.9259556,2.61836444 13.9259556,2.81481778 L13.9259556,12.8815111 Z" id="Shape"></path>
            </g>
        </g>
    </g>
</svg>