<?xml version="1.0" encoding="UTF-8"?>
<svg width="13px" height="16px" viewBox="0 0 13 16" version="1.1" xmlns="http://www.w3.org/2000/svg" xmlns:xlink="http://www.w3.org/1999/xlink">
    <!-- Generator: sketchtool 63.1 (101010) - https://sketch.com -->
    <title>70F31213-964C-45C5-BDF6-047E61CFC148</title>
    <desc>Created with sketchtool.</desc>
    <g id="Grids" stroke="none" stroke-width="1" fill="none" fill-rule="evenodd">
        <g id="icons" transform="translate(-118.000000, -331.000000)" fill="#66ACAC" fill-rule="nonzero">
            <g id="file-a" transform="translate(118.000000, 331.000000)">
                <path d="M3.99998222,6.51852444 L4.74072,6.51852444 C4.93718222,6.51852444 5.12559111,6.44048 5.26450667,6.30156444 C5.40342222,6.16264889 5.48146667,5.97424 5.48146667,5.77778667 C5.48146667,5.58132444 5.40342222,5.39291556 5.26450667,5.254 C5.12559111,5.11508444 4.93718222,5.03704 4.74072,5.03704 L3.99998222,5.03704 C3.80352889,5.03704 3.61511111,5.11508444 3.47619556,5.254 C3.33728,5.39291556 3.25924444,5.58132444 3.25924444,5.77778667 C3.25924444,5.97424 3.33728,6.16264889 3.47619556,6.30156444 C3.61511111,6.44048 3.80352889,6.51852444 3.99998222,6.51852444 L3.99998222,6.51852444 Z M3.99998222,8 C3.80352889,8 3.61511111,8.07804444 3.47619556,8.21697778 C3.33728,8.35591111 3.25924444,8.54426667 3.25924444,8.74071111 C3.25924444,8.93724444 3.33728,9.1256 3.47619556,9.26453333 C3.61511111,9.40346667 3.80352889,9.48151111 3.99998222,9.48151111 L8.44444444,9.48151111 C8.64088889,9.48151111 8.82933333,9.40346667 8.96817778,9.26453333 C9.10711111,9.1256 9.18515556,8.93724444 9.18515556,8.74071111 C9.18515556,8.54426667 9.10711111,8.35591111 8.96817778,8.21697778 C8.82933333,8.07804444 8.64088889,8 8.44444444,8 L3.99998222,8 Z M12.1480889,5.73334222 C12.1404444,5.66528889 12.1255111,5.59824889 12.1036444,5.53334222 L12.1036444,5.46667556 C12.0680889,5.39050667 12.0205333,5.32049778 11.9629333,5.25926222 L11.9629333,5.25926222 L7.51848889,0.814817778 C7.45724444,0.7572 7.38728889,0.709697778 7.31111111,0.67408 C7.28897778,0.670942222 7.26657778,0.670942222 7.24444444,0.67408 C7.16915556,0.630924444 7.08604444,0.603226667 7,0.592595556 L2.51849778,0.592595556 C1.92912889,0.592595556 1.36390222,0.82672 0.947155556,1.24346667 C0.530408889,1.66022222 0.296275556,2.22544889 0.296275556,2.81481778 L0.296275556,13.1851556 C0.296275556,13.7745778 0.530408889,14.3398222 0.947155556,14.7565333 C1.36390222,15.1732444 1.92912889,15.4073778 2.51849778,15.4073778 L9.92586667,15.4073778 C10.5152889,15.4073778 11.0805333,15.1732444 11.4972444,14.7565333 C11.9140444,14.3398222 12.1480889,13.7745778 12.1480889,13.1851556 L12.1480889,5.77778667 C12.1480889,5.77778667 12.1480889,5.77778667 12.1480889,5.73334222 Z M7.70364444,3.11852444 L9.62222222,5.03704 L8.44444444,5.03704 C8.248,5.03704 8.05955556,4.95899556 7.92062222,4.82008 C7.78168889,4.68116444 7.70364444,4.49275556 7.70364444,4.29630222 L7.70364444,3.11852444 Z M10.6666667,13.1851556 C10.6666667,13.3816889 10.5886222,13.5700444 10.4496889,13.7089778 C10.3107556,13.8479111 10.1224,13.9259556 9.92586667,13.9259556 L2.51849778,13.9259556 C2.32204444,13.9259556 2.13363556,13.8479111 1.99472,13.7089778 C1.85580444,13.5700444 1.77776,13.3816889 1.77776,13.1851556 L1.77776,2.81481778 C1.77776,2.61836444 1.85580444,2.42995556 1.99472,2.29104 C2.13363556,2.15212444 2.32204444,2.07408 2.51849778,2.07408 L6.22220444,2.07408 L6.22220444,4.29630222 C6.22220444,4.88567111 6.45635556,5.45090667 6.87306667,5.86765333 C7.28986667,6.2844 7.85502222,6.51852444 8.44444444,6.51852444 L10.6666667,6.51852444 L10.6666667,13.1851556 Z M8.44444444,10.9629333 L3.99998222,10.9629333 C3.80352889,10.9629333 3.61511111,11.0409778 3.47619556,11.1799111 C3.33728,11.3188444 3.25924444,11.5072889 3.25924444,11.7037333 C3.25924444,11.9001778 3.33728,12.0885333 3.47619556,12.2274667 C3.61511111,12.3664 3.80352889,12.4444444 3.99998222,12.4444444 L8.44444444,12.4444444 C8.64088889,12.4444444 8.82933333,12.3664 8.96817778,12.2274667 C9.10711111,12.0885333 9.18515556,11.9001778 9.18515556,11.7037333 C9.18515556,11.5072889 9.10711111,11.3188444 8.96817778,11.1799111 C8.82933333,11.0409778 8.64088889,10.9629333 8.44444444,10.9629333 Z" id="Shape"></path>
            </g>
        </g>
    </g>
</svg>