<?xml version="1.0" encoding="UTF-8"?>
<svg width="16px" height="16px" viewBox="0 0 16 16" version="1.1" xmlns="http://www.w3.org/2000/svg" xmlns:xlink="http://www.w3.org/1999/xlink">
    <!-- Generator: sketchtool 63.1 (101010) - https://sketch.com -->
    <title>F8D688AA-2B1D-473D-8749-DAC00AEE2947</title>
    <desc>Created with sketchtool.</desc>
    <g id="Grids" stroke="none" stroke-width="1" fill="none" fill-rule="evenodd">
        <g id="icons" transform="translate(-64.000000, -413.000000)" fill="#D6DCE3" fill-rule="nonzero">
            <g id="gear" transform="translate(64.000000, 413.000000)">
                <path d="M14.9037333,6.18518222 L13.5037333,5.71851556 L14.1630222,4.39999111 C14.2297778,4.26198222 14.2521778,4.10663111 14.2269333,3.95537778 C14.2017778,3.80412444 14.1302222,3.66442667 14.0222222,3.55554667 L12.4444444,1.97776889 C12.3350222,1.86820444 12.1939556,1.79569778 12.0411556,1.77045333 C11.8883556,1.74520889 11.7314667,1.76849778 11.5926222,1.83703111 L10.2741333,2.49629333 L9.80746667,1.09629333 C9.75813333,0.950355556 9.66462222,0.823422222 9.53982222,0.733137778 C9.41502222,0.642862222 9.26515556,0.593733333 9.11111111,0.592584208 L6.88890667,0.592584208 C6.73361778,0.592186667 6.58212444,0.640604444 6.45584889,0.730986667 C6.32957333,0.821377778 6.23489778,0.949164444 6.18520889,1.09629333 L5.71854222,2.49629333 L4.40001778,1.83703111 C4.26200889,1.77020444 4.10665778,1.74784889 3.95540444,1.77305778 C3.80415111,1.79826667 3.66445333,1.86979556 3.55557333,1.97776889 L1.97779556,3.55554667 C1.86823111,3.66500444 1.79573333,3.80604444 1.77048,3.95885333 C1.74523556,4.11165333 1.76852444,4.26851556 1.83705778,4.40740444 L2.49632,5.72592 L1.09632,6.19258667 C0.950382222,6.24186667 0.823448889,6.33542222 0.733164444,6.46022222 C0.642888889,6.58502222 0.59376,6.73485333 0.592610875,6.88888 L0.592610875,9.11111111 C0.592213333,9.2664 0.640631111,9.41786667 0.731013333,9.54417778 C0.821404444,9.6704 0.949191111,9.76515556 1.09632,9.81484444 L2.49632,10.2815111 L1.83705778,11.6 C1.77023111,11.7380444 1.74787556,11.8933333 1.77308444,12.0446222 C1.79829333,12.1958222 1.86982222,12.3355556 1.97779556,12.4444444 L3.55557333,14.0222222 C3.66503111,14.1318222 3.80608,14.2042667 3.95888,14.2295111 C4.11168,14.2547556 4.26854222,14.2314667 4.40743111,14.1629333 L5.72594667,13.5037333 L6.19261333,14.9037333 C6.24230222,15.0508444 6.33697778,15.1785778 6.46326222,15.2689778 C6.58953778,15.3593778 6.74102222,15.4078222 6.89632,15.4073808 L9.11857778,15.4073808 C9.27386667,15.4078222 9.42533333,15.3593778 9.55155556,15.2689778 C9.67786667,15.1785778 9.77253333,15.0508444 9.82222222,14.9037333 L10.2888889,13.5037333 L11.6074667,14.1629333 C11.7445333,14.2280889 11.8984,14.2495111 12.0480889,14.2243556 C12.1977778,14.1992 12.3361778,14.1286222 12.4444444,14.0222222 L14.0222222,12.4444444 C14.1318222,12.3350222 14.2042667,12.1939556 14.2296,12.0411556 C14.2548444,11.8883556 14.2315556,11.7314667 14.1630222,11.5926222 L13.5037333,10.2740444 L14.9037333,9.80737778 C15.0496889,9.75813333 15.1766222,9.66453333 15.2668444,9.53973333 C15.3571556,9.41493333 15.4063111,9.26515556 15.4074686,9.11111111 L15.4074686,6.88888 C15.4078222,6.73359111 15.3593778,6.58209778 15.2690667,6.45582222 C15.1786667,6.32954667 15.0508444,6.23487111 14.9037333,6.18518222 Z M13.9259556,8.57777778 L13.0370667,8.87404444 C12.8326222,8.94035556 12.6451556,9.05031111 12.4874667,9.19635556 C12.3297778,9.3424 12.2057778,9.52097778 12.1240889,9.71964444 C12.0423111,9.9184 12.0048,10.1325333 12.0140444,10.3472 C12.0233778,10.5619556 12.0792,10.772 12.1777778,10.9629333 L12.6,11.8073778 L11.7852444,12.6222222 L10.9630222,12.1777778 C10.7730667,12.0831111 10.5649778,12.0304 10.3528,12.0232 C10.1407111,12.0159111 9.92951111,12.0544 9.7336,12.1358222 C9.5376,12.2173333 9.36142222,12.3399111 9.21697778,12.4954667 C9.07253333,12.6509333 8.9632,12.8356444 8.89635556,13.0370667 L8.6,13.9259556 L7.42224,13.9259556 L7.12594667,13.0370667 C7.05964444,12.8326222 6.94967111,12.6450667 6.80364444,12.4874667 C6.65762667,12.3297778 6.47905778,12.2057778 6.28032889,12.124 C6.0816,12.0423111 5.86746667,12.0047111 5.65278222,12.0140444 C5.43808889,12.0232889 5.22799111,12.0792 5.03705778,12.1777778 L4.19261333,12.6 L3.37779556,11.7851556 L3.82224,10.9629333 C3.92082667,10.772 3.97670222,10.5619556 3.98598222,10.3472 C3.99526222,10.1325333 3.95772444,9.9184 3.87597333,9.71964444 C3.79423111,9.52097778 3.67022222,9.3424 3.51256889,9.19635556 C3.35491556,9.05031111 3.16738667,8.94035556 2.96298667,8.87404444 L2.07409778,8.57777778 L2.07409778,7.42221333 L2.96298667,7.12592 C3.16738667,7.05961778 3.35491556,6.94964444 3.51256889,6.80361778 C3.67022222,6.6576 3.79423111,6.47903111 3.87597333,6.28030222 C3.95772444,6.08157333 3.99526222,5.86744 3.98598222,5.65275556 C3.97670222,5.43806222 3.92082667,5.22796444 3.82224,5.03703111 L3.40001778,4.21480889 L4.21483556,3.39999111 L5.03705778,3.82221333 C5.22799111,3.9208 5.43808889,3.97667556 5.65278222,3.98595556 C5.86746667,3.99523556 6.0816,3.95769778 6.28032889,3.87594667 C6.47905778,3.79420444 6.65762667,3.67019556 6.80364444,3.51254222 C6.94967111,3.35488889 7.05964444,3.16736 7.12594667,2.96296 L7.42224,2.07407111 L8.57777778,2.07407111 L8.87413333,2.96296 C8.94035556,3.16736 9.0504,3.35488889 9.19635556,3.51254222 C9.3424,3.67019556 9.52097778,3.79420444 9.71973333,3.87594667 C9.9184,3.95769778 10.1325333,3.99523556 10.3472889,3.98595556 C10.5619556,3.97667556 10.7720889,3.9208 10.9630222,3.82221333 L11.8074667,3.39999111 L12.6222222,4.21480889 L12.1777778,5.03703111 C12.0832,5.22698667 12.0304,5.43506667 12.0232,5.64717333 C12.016,5.85927111 12.0544,6.07046222 12.1359111,6.26642667 C12.2173333,6.46239111 12.34,6.63856 12.4954667,6.78301333 C12.6509333,6.92746667 12.8356444,7.03682667 13.0370667,7.10369778 L13.9259556,7.39999111 L13.9259556,8.57777778 Z M8,5.03703111 C7.414,5.03703111 6.84114667,5.21080889 6.35388444,5.53638222 C5.86663111,5.86195556 5.48686222,6.32470222 5.26259556,6.86611556 C5.03833778,7.40752889 4.97966222,8.00328889 5.09399111,8.57804444 C5.20832,9.1528 5.49050667,9.68071111 5.90488889,10.0951111 C6.31926222,10.5095111 6.84721778,10.7917333 7.42197333,10.9060444 C7.99672889,11.0203556 8.59244444,10.9616889 9.13386667,10.7374222 C9.67528889,10.5131556 10.1380444,10.1334222 10.4636444,9.64613333 C10.7892444,9.15884444 10.9630222,8.58604444 10.9630222,7.99999111 C10.9630222,7.21416889 10.6508444,6.46052444 10.0951111,5.90486222 C9.53946667,5.3492 8.78586667,5.03703111 8,5.03703111 L8,5.03703111 Z M8,9.48151111 C7.70701333,9.48151111 7.42057778,9.39457778 7.17695111,9.23182222 C6.93332444,9.06897778 6.74344,8.8376 6.63130667,8.56693333 C6.51918222,8.29626667 6.48984,7.99834667 6.54700444,7.71096889 C6.60416889,7.42359111 6.74526222,7.15961778 6.95245333,6.95242667 C7.15964444,6.74523556 7.42361778,6.60414222 7.71099556,6.54697778 C7.99837333,6.48981333 8.29626667,6.51915556 8.56693333,6.63128 C8.83768889,6.74341333 9.06906667,6.93329778 9.23182222,7.17692444 C9.39457778,7.42055111 9.48151111,7.70698667 9.48151111,7.99999111 C9.48151111,8.39288889 9.32542222,8.76968889 9.04755556,9.04755556 C8.76977778,9.32542222 8.39288889,9.48151111 8,9.48151111 Z" id="Shape"></path>
            </g>
        </g>
    </g>
</svg>