<?xml version="1.0" encoding="UTF-8"?>
<svg width="16px" height="16px" viewBox="0 0 16 16" version="1.1" xmlns="http://www.w3.org/2000/svg" xmlns:xlink="http://www.w3.org/1999/xlink">
    <!-- Generator: sketchtool 63.1 (101010) - https://sketch.com -->
    <title>5BD09AB5-D68D-4FE5-B980-A92FB4A2D279</title>
    <desc>Created with sketchtool.</desc>
    <g id="Grids" stroke="none" stroke-width="1" fill="none" fill-rule="evenodd">
        <g id="icons" transform="translate(-64.000000, -454.000000)" fill="#D6DCE3" fill-rule="nonzero">
            <g id="question-circle" transform="translate(64.000000, 454.000000)">
                <path d="M7.47409778,10.4370667 C7.44224,10.4722667 7.41255111,10.5093333 7.38520889,10.5481778 C7.35717333,10.5894222 7.33475556,10.6343111 7.31854222,10.6815111 C7.29718222,10.7234667 7.28220444,10.7684444 7.27409778,10.8148444 C7.27046222,10.8640889 7.27046222,10.9136 7.27409778,10.9629333 C7.27159111,11.0600889 7.29188444,11.1565333 7.33335111,11.2444444 C7.36662222,11.3363556 7.41969778,11.4198222 7.48882667,11.4889778 C7.55794667,11.5581333 7.64143111,11.6112 7.73335111,11.6444444 C7.82201778,11.6836444 7.91789333,11.7039111 8.01484444,11.7039111 C8.11182222,11.7039111 8.20764444,11.6836444 8.29635556,11.6444444 C8.38826667,11.6112 8.47173333,11.5581333 8.54088889,11.4889778 C8.60995556,11.4198222 8.66302222,11.3363556 8.69635556,11.2444444 C8.72924444,11.1544 8.74426667,11.0587556 8.7408,10.9629333 C8.74133333,10.8655111 8.72266667,10.7688 8.68577778,10.6785778 C8.64888889,10.5883556 8.59457778,10.5062222 8.52595556,10.4370667 C8.45706667,10.3675556 8.3752,10.3125333 8.28488889,10.2748444 C8.19466667,10.2372444 8.09777778,10.2179556 8,10.2179556 C7.90223111,10.2179556 7.80541333,10.2372444 7.71514667,10.2748444 C7.62488,10.3125333 7.54296,10.3675556 7.47409778,10.4370667 Z M8,0.592586667 C6.53497778,0.592586667 5.10282667,1.02702222 3.88468444,1.84096 C2.66654222,2.65488889 1.71712,3.81176889 1.15647111,5.16529778 C0.595822222,6.51882667 0.449128889,8.00817778 0.734942222,9.44506667 C1.02076444,10.8820444 1.72624889,12.2018667 2.76219556,13.2377778 C3.79814222,14.2737778 5.11800889,14.9792889 6.55490667,15.2650667 C7.99180444,15.5508444 9.48115556,15.4041778 10.8347556,14.8435556 C12.1882667,14.2829333 13.3451556,13.3335111 14.1590222,12.1152889 C14.9729778,10.8971556 15.4074667,9.46506667 15.4074667,7.99999111 C15.4074667,7.02723556 15.2158222,6.06400889 14.8435556,5.16529778 C14.4712889,4.26658667 13.9256889,3.45 13.2378667,2.76216 C12.5500444,2.07432 11.7334222,1.52869333 10.8347556,1.15643556 C9.936,0.784177778 8.9728,0.592586667 8,0.592586667 L8,0.592586667 Z M8,13.9259556 C6.82798222,13.9259556 5.68226667,13.5784 4.70775111,12.9272 C3.73323556,12.2760889 2.97369778,11.3505778 2.52518222,10.2677333 C2.07665778,9.18488889 1.95930667,7.99341333 2.18796444,6.84390222 C2.41661333,5.69438222 2.98100444,4.63848 3.80976,3.80972444 C4.63851556,2.98096889 5.69441778,2.41658667 6.84392889,2.18792889 C7.99344889,1.95928 9.18497778,2.07663111 10.2677333,2.52514667 C11.3505778,2.97367111 12.2760889,3.73320889 12.9272889,4.70772444 C13.5784,5.68224 13.9259556,6.82795556 13.9259556,7.99999111 C13.9259556,9.57164444 13.3016,11.0789333 12.1903111,12.1902222 C11.0789333,13.3016 9.57164444,13.9259556 8,13.9259556 L8,13.9259556 Z M8,4.29628399 C7.60969778,4.29603556 7.22619556,4.39859556 6.88809778,4.59365333 C6.55000889,4.78870222 6.26925333,5.06936889 6.07409778,5.40739556 C6.02049778,5.49170667 5.98451556,5.58599111 5.96830222,5.68456889 C5.95208,5.78314667 5.95598222,5.88398222 5.97974222,5.98102222 C6.00351111,6.07805333 6.04666667,6.16928 6.10660444,6.2492 C6.16654222,6.32912889 6.24202667,6.39610667 6.32851556,6.44609778 C6.41501333,6.49609778 6.51072,6.52808 6.60989333,6.54012444 C6.70907556,6.55216889 6.80966222,6.54403556 6.90560889,6.51619556 C7.00155556,6.48836444 7.09088,6.44140444 7.16820444,6.37815111 C7.24553778,6.31489778 7.30927111,6.23665778 7.35557333,6.14814222 C7.42083556,6.03510222 7.51480889,5.94130667 7.62798222,5.87627556 C7.74114667,5.81123556 7.86949333,5.77725333 8,5.77776889 C8.19644444,5.77776889 8.38488889,5.85581333 8.52382222,5.99472889 C8.66275556,6.13364444 8.7408,6.32205333 8.7408,6.51850667 C8.7408,6.71496889 8.66275556,6.90337778 8.52382222,7.04229333 C8.38488889,7.18120889 8.19644444,7.25925333 8,7.25925333 C7.80356444,7.25925333 7.61515556,7.33728889 7.47624,7.47620444 C7.33732444,7.61512889 7.25928,7.80353778 7.25928,7.99999111 L7.25928,8.74071111 C7.25928,8.93715556 7.33732444,9.1256 7.47624,9.26453333 C7.61515556,9.40346667 7.80356444,9.48151111 8,9.48151111 C8.19644444,9.48151111 8.38488889,9.40346667 8.52382222,9.26453333 C8.66275556,9.1256 8.7408,8.93715556 8.7408,8.74071111 L8.7408,8.60737778 C9.23066667,8.4296 9.64248889,8.08533333 9.90426667,7.63471111 C10.1660444,7.18407111 10.2611556,6.65576 10.1728889,6.14213333 C10.0846222,5.62849778 9.81866667,5.16222222 9.42151111,4.82481778 C9.02426667,4.48740444 8.52115556,4.30032889 8,4.29628399 L8,4.29628399 Z" id="Shape"></path>
            </g>
        </g>
    </g>
</svg>