<?xml version="1.0" encoding="UTF-8"?>
<svg width="16px" height="16px" viewBox="0 0 16 16" version="1.1" xmlns="http://www.w3.org/2000/svg" xmlns:xlink="http://www.w3.org/1999/xlink">
    <!-- Generator: sketchtool 63.1 (101010) - https://sketch.com -->
    <title>385163EB-F2F3-49EF-AC25-FBC83FC74863</title>
    <desc>Created with sketchtool.</desc>
    <g id="Grids" stroke="none" stroke-width="1" fill="none" fill-rule="evenodd">
        <g id="icons" transform="translate(-63.000000, -131.000000)" fill="#D6DCE3" fill-rule="nonzero">
            <g id="user" transform="translate(63.000000, 131.000000)">
                <path d="M10.7481778,8.52595556 C11.4744,7.95456 12.0044444,7.17104889 12.2646222,6.28439111 C12.5248,5.39774222 12.5021333,4.45204444 12.1998222,3.57886222 C11.8975111,2.70567111 11.3305778,1.94843556 10.5778667,1.41248 C9.82506667,0.876524444 8.924,0.588515556 8,0.588515556 C7.07595556,0.588515556 6.17489778,0.876524444 5.42216889,1.41248 C4.66944,1.94843556 4.10247111,2.70567111 3.80015111,3.57886222 C3.49783111,4.45204444 3.47519111,5.39774222 3.73537778,6.28439111 C3.99556444,7.17104889 4.52563556,7.95456 5.25184889,8.52595556 C4.00746667,9.02444444 2.92168889,9.85137778 2.11028444,10.9184889 C1.29888889,11.9855111 0.792266667,13.2528 0.644444444,14.5851556 C0.633742222,14.6824889 0.642302222,14.7808889 0.669644444,14.8748444 C0.696986667,14.9688 0.742568889,15.0564444 0.803786667,15.1328 C0.927422222,15.2870222 1.10724444,15.3857778 1.30369778,15.4073778 C1.50016,15.4289778 1.69715556,15.3717333 1.85135111,15.2480889 C2.00554667,15.1244444 2.10431111,14.9446222 2.12592,14.7481778 C2.28857778,13.3001778 2.97902222,11.9628444 4.06534222,10.9917333 C5.15166222,10.0205333 6.55769778,9.48373333 8.01484444,9.48373333 C9.47191111,9.48373333 10.8779556,10.0205333 11.9642667,10.9917333 C13.0505778,11.9628444 13.7410667,13.3001778 13.9037333,14.7481778 C13.9238222,14.9301333 14.0106667,15.0982222 14.1474667,15.22 C14.2842667,15.3417778 14.4613333,15.4085333 14.6444444,15.4073778 L14.7259556,15.4073778 C14.9200889,15.3850667 15.0976,15.2868444 15.2196444,15.1342222 C15.3417778,14.9816 15.3985778,14.7869333 15.3777778,14.5926222 C15.2292444,13.2564444 14.7199111,11.9858667 13.9043556,10.9171556 C13.0888,9.84844444 11.9976889,9.02186667 10.7481778,8.52595556 Z M8,7.99999111 C7.41398222,7.99999111 6.84112,7.82622222 6.35386667,7.50064 C5.86660444,7.17506667 5.48683556,6.71232 5.26257778,6.17090667 C5.03832,5.62949333 4.97964444,5.03374222 5.09396444,4.45898667 C5.20829333,3.88422222 5.49048889,3.35627556 5.90486222,2.94190222 C6.31924444,2.52752 6.84719111,2.24532444 7.42195556,2.13099556 C7.99671111,2.01667556 8.59244444,2.07535111 9.13386667,2.29960889 C9.67528889,2.52386667 10.1380444,2.90363556 10.4636444,3.39089778 C10.7891556,3.87815111 10.9629333,4.45101333 10.9629333,5.03703111 C10.9629333,5.82285333 10.6507556,6.57649778 10.0951111,7.13216 C9.53946667,7.68782222 8.78586667,7.99999111 8,7.99999111 Z" id="Shape"></path>
            </g>
        </g>
    </g>
</svg>