<?xml version="1.0" encoding="UTF-8"?>
<svg width="28px" height="84px" viewBox="0 0 28 84" version="1.1" xmlns="http://www.w3.org/2000/svg" xmlns:xlink="http://www.w3.org/1999/xlink">
    <!-- Generator: Sketch 43 (38999) - http://www.bohemiancoding.com/sketch -->
    <title>Group</title>
    <desc>Created with Sketch.</desc>
    <defs></defs>
    <g id="Page-1" stroke="none" stroke-width="1" fill="none" fill-rule="evenodd">
        <g id="Group">
            <g id="×">
                <g>
                    <rect id="Rectangle-134" fill="#BB0000" x="0" y="0" width="28" height="28" rx="14"></rect>
                    <polygon fill="#FFFFFF" opacity="0.899999976" points="7.22 7.8 12.86 13.47 7.22 19.14 8.33 20.25 14 14.61 19.67 20.25 20.78 19.14 15.11 13.47 20.78 7.8 19.67 6.69 14 12.36 8.33 6.69"></polygon>
                </g>
            </g>
            <g id="×" transform="translate(0.000000, 28.000000)">
                <g>
                    <rect id="Rectangle-134" fill="#36318e" x="0" y="0" width="28" height="28" rx="14"></rect>
                    <polygon fill="#FFFFFF" opacity="0.899999976" points="7.22 7.8 12.86 13.47 7.22 19.14 8.33 20.25 14 14.61 19.67 20.25 20.78 19.14 15.11 13.47 20.78 7.8 19.67 6.69 14 12.36 8.33 6.69"></polygon>
                </g>
            </g>
            <g id="×" transform="translate(0.000000, 56.000000)">
                <g>
                    <rect id="Rectangle-134" fill="#000000" x="0" y="0" width="28" height="28" rx="14"></rect>
                    <polygon fill="#FFFFFF" opacity="0.899999976" points="7.22 7.8 12.86 13.47 7.22 19.14 8.33 20.25 14 14.61 19.67 20.25 20.78 19.14 15.11 13.47 20.78 7.8 19.67 6.69 14 12.36 8.33 6.69"></polygon>
                </g>
            </g>
        </g>
    </g>
</svg>