<svg width="19" height="18" viewBox="0 0 19 18" fill="none" xmlns="http://www.w3.org/2000/svg">
<path d="M3.28223 13.5V9C3.28223 5.68629 5.96852 3 9.28223 3C12.5959 3 15.2822 5.68629 15.2822 9V13.5C15.2822 13.9142 15.618 14.25 16.0322 14.25C16.4464 14.25 16.7822 13.9142 16.7822 13.5V9C16.7822 4.85786 13.4244 1.5 9.28223 1.5C5.14009 1.5 1.78223 4.85786 1.78223 9L1.78223 13.5C1.78223 13.9142 2.11801 14.25 2.53223 14.25C2.94644 14.25 3.28223 13.9142 3.28223 13.5Z" fill="#66ACAC"/>
<path fill-rule="evenodd" clip-rule="evenodd" d="M14.5322 16.5C15.7749 16.5 16.7822 15.4926 16.7822 14.25V10.5C16.7822 10.0858 16.4464 9.75 16.0322 9.75H13.7822C12.5396 9.75 11.5322 10.7574 11.5322 12V14.25C11.5322 15.4926 12.5396 16.5 13.7822 16.5H14.5322ZM13.7822 11.25H15.2822V14.25C15.2822 14.6642 14.9464 15 14.5322 15H13.7822C13.368 15 13.0322 14.6642 13.0322 14.25V12C13.0322 11.5858 13.368 11.25 13.7822 11.25Z" fill="#66ACAC"/>
<path fill-rule="evenodd" clip-rule="evenodd" d="M1.78223 10.5V14.25C1.78223 15.4926 2.78959 16.5 4.03223 16.5H4.78223C6.02487 16.5 7.03223 15.4926 7.03223 14.25V12C7.03223 10.7574 6.02487 9.75 4.78223 9.75H2.53223C2.11801 9.75 1.78223 10.0858 1.78223 10.5ZM3.28223 14.25V11.25H4.78223C5.19644 11.25 5.53223 11.5858 5.53223 12V14.25C5.53223 14.6642 5.19644 15 4.78223 15H4.03223C3.61801 15 3.28223 14.6642 3.28223 14.25Z" fill="#66ACAC"/>
</svg>
