<?xml version="1.0" encoding="UTF-8"?>
<svg width="12px" height="12px" viewBox="0 0 12 12" version="1.1" xmlns="http://www.w3.org/2000/svg" xmlns:xlink="http://www.w3.org/1999/xlink">
    <title>2</title>
    <g id="2" stroke="none" stroke-width="1" fill="none" fill-rule="evenodd">
        <g id="icons/star-copy-4" fill="#EB934B" fill-rule="nonzero">
            <path d="M4.90389784,4.35131196 C4.83112797,4.49873571 4.69053537,4.60096534 4.52785827,4.62474303 L2.07475,4.98330155 L3.84941057,6.71182095 C3.96734743,6.82669145 4.02117875,6.99225703 3.99334848,7.15452167 L3.57463456,9.59583669 L5.76781853,8.44246325 C5.91350996,8.36584558 6.08757837,8.36584558 6.23326981,8.44246325 L8.42645377,9.59583669 L8.00773986,7.15452167 C7.97990958,6.99225703 8.0337409,6.82669145 8.15167777,6.71182095 L9.92633834,4.98330155 L7.47323006,4.62474303 C7.31055297,4.60096534 7.16996036,4.49873571 7.09719049,4.35131196 L6.00054417,2.12962717 L4.90389784,4.35131196 Z M4.12341348,3.67323305 L5.55219049,0.778688042 C5.73560818,0.407103986 6.26548015,0.407103986 6.44889784,0.778688042 L7.87767485,3.67323305 L11.0728583,4.14025697 C11.4828156,4.20017837 11.6462073,4.70409901 11.3494106,4.99317905 L9.03780506,7.24468282 L9.58334848,10.4254783 C9.65340774,10.8339594 9.22463331,11.145441 8.85781853,10.9525368 L6.00054417,9.44992483 L3.14326981,10.9525368 C2.77645502,11.145441 2.3476806,10.8339594 2.41773986,10.4254783 L2.96328327,7.24468282 L0.651677768,4.99317905 C0.354881003,4.70409901 0.518272724,4.20017837 0.928230062,4.14025697 L4.12341348,3.67323305 Z" id="Shape"></path>
        </g>
    </g>
</svg>