<?xml version="1.0" encoding="UTF-8" standalone="no"?>
<svg
   xmlns:dc="http://purl.org/dc/elements/1.1/"
   xmlns:cc="http://creativecommons.org/ns#"
   xmlns:rdf="http://www.w3.org/1999/02/22-rdf-syntax-ns#"
   xmlns:svg="http://www.w3.org/2000/svg"
   xmlns="http://www.w3.org/2000/svg"
   id="svg6"
   version="1.1"
   fill="none"
   viewBox="0 0 24 24"
   height="24"
   width="24">
  <metadata
     id="metadata12">
    <rdf:RDF>
      <cc:Work
         rdf:about="">
        <dc:format>image/svg+xml</dc:format>
        <dc:type
           rdf:resource="http://purl.org/dc/dcmitype/StillImage" />
        <dc:title></dc:title>
      </cc:Work>
    </rdf:RDF>
  </metadata>
  <defs
     id="defs10" />
  <path
     style="fill:#66acac;fill-opacity:1"
     id="path2"
     fill="#66acac"
     d="M3 12C3 11.4477 3.44772 11 4 11H20C20.5523 11 21 11.4477 21 12C21 12.5523 20.5523 13 20 13H4C3.44772 13 3 12.5523 3 12Z"
     clip-rule="evenodd"
     fill-rule="evenodd" />
  <path
     style="fill:#66acac;fill-opacity:1"
     id="path4"
     fill="#66acac"
     d="M10.7071 5.29289C11.0976 5.68342 11.0976 6.31658 10.7071 6.70711L5.41421 12L10.7071 17.2929C11.0976 17.6834 11.0976 18.3166 10.7071 18.7071C10.3166 19.0976 9.68342 19.0976 9.29289 18.7071L3.29289 12.7071C2.90237 12.3166 2.90237 11.6834 3.29289 11.2929L9.29289 5.29289C9.68342 4.90237 10.3166 4.90237 10.7071 5.29289Z"
     clip-rule="evenodd"
     fill-rule="evenodd" />
</svg>
