<svg width="24" height="24" viewBox="0 0 24 24" fill="none" xmlns="http://www.w3.org/2000/svg">
<path fill-rule="evenodd" clip-rule="evenodd" d="M23 17L23 7C23 5.34315 21.6569 4 20 4L4 4C2.34315 4 1 5.34314 1 7L0.999999 17C0.999999 18.6569 2.34314 20 4 20L20 20C21.6569 20 23 18.6569 23 17ZM20 6C20.5523 6 21 6.44772 21 7L21 17C21 17.5523 20.5523 18 20 18L4 18C3.44772 18 3 17.5523 3 17L3 7C3 6.44771 3.44772 6 4 6L20 6Z" fill="#66ACAC"/>
<line x1="3" y1="10" x2="21" y2="10" stroke="#66ACAC" stroke-width="2"/>
</svg>
