<?xml version="1.0" encoding="UTF-8"?>
<svg width="24px" height="24px" viewBox="0 0 24 24" version="1.1" xmlns="http://www.w3.org/2000/svg" xmlns:xlink="http://www.w3.org/1999/xlink">
    <title>2</title>
    <g id="2" stroke="none" stroke-width="1" fill="none" fill-rule="evenodd">
        <g id="icons/align-left-copy-2" transform="translate(3.000000, 2.000000)" fill="#66ACAC" fill-rule="nonzero">
            <path d="M13,12 C15.7614237,12 18,14.2385763 18,17 L18,17 L18,19 C18,19.5522847 17.5522847,20 17,20 C16.4477153,20 16,19.5522847 16,19 L16,19 L16,17 C16,15.3431458 14.6568542,14 13,14 L13,14 L5,14 C3.34314575,14 2,15.3431458 2,17 L2,17 L2,19 C2,19.5522847 1.55228475,20 1,20 C0.44771525,20 0,19.5522847 0,19 L0,19 L0,17 C0,14.2385763 2.23857625,12 5,12 L5,12 Z M9,0 C11.7614237,0 14,2.23857625 14,5 C14,7.76142375 11.7614237,10 9,10 C6.23857625,10 4,7.76142375 4,5 C4,2.23857625 6.23857625,0 9,0 Z M9,2 C7.34314575,2 6,3.34314575 6,5 C6,6.65685425 7.34314575,8 9,8 C10.6568542,8 12,6.65685425 12,5 C12,3.34314575 10.6568542,2 9,2 Z" id="Combined-Shape"></path>
        </g>
    </g>
</svg>