<?xml version="1.0" standalone="no"?>
<!DOCTYPE svg PUBLIC "-//W3C//DTD SVG 20010904//EN"
 "http://www.w3.org/TR/2001/REC-SVG-20010904/DTD/svg10.dtd">
<svg version="1.0" xmlns="http://www.w3.org/2000/svg"
 width="500.000000pt" height="500.000000pt" viewBox="0 0 500.000000 500.000000"
 preserveAspectRatio="xMidYMid meet">
<metadata>
Created by potrace 1.14, written by Peter Selinger 2001-2017
</metadata>
<g transform="translate(0.000000,500.000000) scale(0.100000,-0.100000)"
fill="#000000" stroke="none">
<path d="M18 4013 c-16 -4 -18 -19 -18 -142 l0 -137 104 -275 c57 -151 239
-625 404 -1054 165 -429 346 -901 402 -1050 57 -148 107 -281 112 -295 9 -23
12 -20 47 55 l37 79 28 -77 c16 -43 31 -76 34 -73 6 7 188 410 468 1039 109
246 201 447 204 447 3 0 140 -333 305 -740 164 -407 301 -737 304 -734 4 3 20
42 37 86 l30 80 34 -86 c18 -48 36 -83 40 -79 4 4 45 107 90 228 45 121 220
576 388 1010 167 435 385 999 482 1255 l178 465 -172 3 c-94 2 -239 0 -323 -3
l-151 -7 -22 -62 c-12 -33 -89 -232 -170 -441 -176 -453 -306 -808 -351 -962
-18 -62 -36 -110 -40 -105 -3 4 -33 81 -67 172 -57 155 -110 294 -417 1090
l-121 315 -292 -1 c-161 -1 -295 -4 -299 -7 -6 -6 46 -173 182 -587 l57 -175
-167 -360 c-92 -198 -182 -393 -200 -434 l-33 -73 -15 48 c-9 27 -37 117 -62
199 -38 120 -207 596 -477 1338 l-20 57 -267 -1 c-146 -1 -274 -3 -283 -6z"/>
<path d="M3755 3998 c-6 -25 -295 -1655 -295 -1663 0 -3 110 -5 245 -5 l245 0
-5 -22 c-3 -13 -64 -297 -136 -633 -71 -335 -134 -627 -138 -647 -5 -21 -5
-36 0 -33 4 3 38 44 75 90 37 47 69 84 70 82 2 -1 -6 -41 -16 -87 -10 -46 -18
-86 -16 -87 1 -2 276 336 609 750 l607 752 0 122 0 123 -266 0 c-209 0 -265 3
-261 13 94 233 496 1252 494 1253 -1 1 -273 4 -604 8 l-602 7 -6 -23z"/>
</g>
</svg>
